<!DOCTYPE svg PUBLIC "-//W3C//DTD SVG 1.1//EN" "http://www.w3.org/Graphics/SVG/1.1/DTD/svg11.dtd">
<!-- Uploaded to: SVG Repo, www.svgrepo.com, Transformed by: SVG Repo Mixer Tools -->
<svg width="800px" height="800px" viewBox="0 0 36 36" xmlns="http://www.w3.org/2000/svg" xmlns:xlink="http://www.w3.org/1999/xlink" aria-hidden="true" role="img" class="iconify iconify--twemoji" preserveAspectRatio="xMidYMid meet" fill="#000000">
<g id="SVGRepo_bgCarrier" stroke-width="0"/>
<g id="SVGRepo_tracerCarrier" stroke-linecap="round" stroke-linejoin="round"/>
<g id="SVGRepo_iconCarrier">
<path fill="#D21034" d="M18 5h-2v11h20v-2H18zm-2 17v9h2v-9h18v-2H16zm-3-2H0v2h11v9h2v-9zm0-6V5h-2v9H0v2h13z"/>
<path fill="#0053A5" d="M16 5h-3v11H0v4h13v11h3V20h20v-4H16z"/>
<path fill="#FFCE00" d="M18 22v9h14a4 4 0 0 0 4-4v-5H18zM0 22v5a4 4 0 0 0 4 4h7v-9H0zM11 5H4a4 4 0 0 0-4 4v5h11V5zm21 0H18v9h18V9a4 4 0 0 0-4-4z"/>
</g>
</svg>